<mxfile host="app.diagrams.net" agent="Mozilla/5.0 (Windows NT 10.0; Win64; x64) AppleWebKit/537.36 (KHTML, like Gecko) Chrome/131.0.0.0 Safari/537.36 Edg/131.0.0.0" version="24.9.3">
  <diagram name="Stránka-1" id="rUX6niv1LLLGC7QBXCiK">
    <mxGraphModel dx="1213" dy="768" grid="1" gridSize="10" guides="1" tooltips="1" connect="1" arrows="1" fold="1" page="1" pageScale="1" pageWidth="827" pageHeight="1169" math="0" shadow="0">
      <root>
        <mxCell id="0" />
        <mxCell id="1" parent="0" />
        <mxCell id="a-drvNiUqQqroQRQX2eO-1" value="" style="ellipse;html=1;shape=startState;fillColor=#000000;strokeColor=#ff0000;" parent="1" vertex="1">
          <mxGeometry y="60" width="30" height="30" as="geometry" />
        </mxCell>
        <mxCell id="a-drvNiUqQqroQRQX2eO-2" value="" style="edgeStyle=orthogonalEdgeStyle;html=1;verticalAlign=bottom;endArrow=open;endSize=8;strokeColor=#ff0000;rounded=0;" parent="1" source="a-drvNiUqQqroQRQX2eO-1" target="a-drvNiUqQqroQRQX2eO-7" edge="1">
          <mxGeometry relative="1" as="geometry">
            <mxPoint x="160" y="105" as="targetPoint" />
          </mxGeometry>
        </mxCell>
        <mxCell id="a-drvNiUqQqroQRQX2eO-4" value="Návštěva zápasu fanouškem" style="text;html=1;align=center;verticalAlign=middle;whiteSpace=wrap;rounded=0;fontSize=20;" parent="1" vertex="1">
          <mxGeometry x="240" y="20" width="310" height="40" as="geometry" />
        </mxCell>
        <mxCell id="a-drvNiUqQqroQRQX2eO-7" value="Příchod ke stadionu" style="rounded=1;whiteSpace=wrap;html=1;arcSize=40;fontColor=#000000;fillColor=#ffffc0;strokeColor=#ff0000;fontSize=15;" parent="1" vertex="1">
          <mxGeometry x="60" y="85" width="120" height="40" as="geometry" />
        </mxCell>
        <mxCell id="a-drvNiUqQqroQRQX2eO-8" value="Má vše co potřebuje na zápas?" style="rhombus;whiteSpace=wrap;html=1;fontColor=#000000;fillColor=#ffffc0;strokeColor=#ff0000;fontSize=13;" parent="1" vertex="1">
          <mxGeometry x="50" y="190" width="110" height="110" as="geometry" />
        </mxCell>
        <mxCell id="a-drvNiUqQqroQRQX2eO-9" value="no" style="edgeStyle=orthogonalEdgeStyle;html=1;align=left;verticalAlign=bottom;endArrow=open;endSize=8;strokeColor=#ff0000;rounded=0;entryX=0;entryY=0.5;entryDx=0;entryDy=0;" parent="1" source="a-drvNiUqQqroQRQX2eO-8" target="a-drvNiUqQqroQRQX2eO-15" edge="1">
          <mxGeometry x="-1" relative="1" as="geometry">
            <mxPoint x="190" y="310" as="targetPoint" />
          </mxGeometry>
        </mxCell>
        <mxCell id="a-drvNiUqQqroQRQX2eO-10" value="yes" style="edgeStyle=orthogonalEdgeStyle;html=1;align=left;verticalAlign=top;endArrow=open;endSize=8;strokeColor=#ff0000;rounded=0;exitX=0.5;exitY=1;exitDx=0;exitDy=0;entryX=0.5;entryY=0;entryDx=0;entryDy=0;" parent="1" source="a-drvNiUqQqroQRQX2eO-8" target="a-drvNiUqQqroQRQX2eO-12" edge="1">
          <mxGeometry x="-1" relative="1" as="geometry">
            <mxPoint x="195" y="380" as="targetPoint" />
            <mxPoint x="190" y="280" as="sourcePoint" />
          </mxGeometry>
        </mxCell>
        <mxCell id="a-drvNiUqQqroQRQX2eO-11" value="" style="edgeStyle=orthogonalEdgeStyle;html=1;align=left;verticalAlign=top;endArrow=open;endSize=8;strokeColor=#ff0000;rounded=0;" parent="1" edge="1">
          <mxGeometry x="-1" relative="1" as="geometry">
            <mxPoint x="105" y="190" as="targetPoint" />
            <mxPoint x="104.5" y="125" as="sourcePoint" />
          </mxGeometry>
        </mxCell>
        <mxCell id="a-drvNiUqQqroQRQX2eO-12" value="Jde na stadion" style="rounded=1;whiteSpace=wrap;html=1;arcSize=40;fontColor=#000000;fillColor=#ffffc0;strokeColor=#ff0000;fontSize=13;" parent="1" vertex="1">
          <mxGeometry x="45" y="430" width="120" height="40" as="geometry" />
        </mxCell>
        <mxCell id="a-drvNiUqQqroQRQX2eO-13" value="" style="edgeStyle=orthogonalEdgeStyle;html=1;verticalAlign=bottom;endArrow=open;endSize=8;strokeColor=#ff0000;rounded=0;entryX=0.5;entryY=0;entryDx=0;entryDy=0;" parent="1" source="a-drvNiUqQqroQRQX2eO-12" target="a-drvNiUqQqroQRQX2eO-14" edge="1">
          <mxGeometry relative="1" as="geometry">
            <mxPoint x="200" y="480" as="targetPoint" />
            <Array as="points">
              <mxPoint x="110" y="510" />
              <mxPoint x="110" y="510" />
            </Array>
          </mxGeometry>
        </mxCell>
        <mxCell id="a-drvNiUqQqroQRQX2eO-14" value="" style="ellipse;html=1;shape=endState;fillColor=#000000;strokeColor=#ff0000;" parent="1" vertex="1">
          <mxGeometry x="95" y="550" width="30" height="30" as="geometry" />
        </mxCell>
        <mxCell id="a-drvNiUqQqroQRQX2eO-15" value="Má šálu?" style="rhombus;whiteSpace=wrap;html=1;fontColor=#000000;fillColor=#ffffc0;strokeColor=#ff0000;" parent="1" vertex="1">
          <mxGeometry x="210" y="220" width="90" height="50" as="geometry" />
        </mxCell>
        <mxCell id="a-drvNiUqQqroQRQX2eO-18" value="no" style="edgeStyle=orthogonalEdgeStyle;html=1;align=left;verticalAlign=top;endArrow=open;endSize=8;strokeColor=#ff0000;rounded=0;exitX=0.5;exitY=1;exitDx=0;exitDy=0;" parent="1" source="a-drvNiUqQqroQRQX2eO-15" edge="1">
          <mxGeometry x="-1" relative="1" as="geometry">
            <mxPoint x="255" y="360" as="targetPoint" />
            <mxPoint x="254.5" y="280" as="sourcePoint" />
          </mxGeometry>
        </mxCell>
        <mxCell id="a-drvNiUqQqroQRQX2eO-19" value="yes" style="edgeStyle=orthogonalEdgeStyle;html=1;align=left;verticalAlign=bottom;endArrow=open;endSize=8;strokeColor=#ff0000;rounded=0;" parent="1" edge="1">
          <mxGeometry x="-1" relative="1" as="geometry">
            <mxPoint x="390" y="244.5" as="targetPoint" />
            <mxPoint x="300" y="244.5" as="sourcePoint" />
          </mxGeometry>
        </mxCell>
        <mxCell id="a-drvNiUqQqroQRQX2eO-20" value="Má dres?" style="rhombus;whiteSpace=wrap;html=1;fontColor=#000000;fillColor=#ffffc0;strokeColor=#ff0000;" parent="1" vertex="1">
          <mxGeometry x="390" y="220" width="90" height="50" as="geometry" />
        </mxCell>
        <mxCell id="a-drvNiUqQqroQRQX2eO-21" value="no" style="edgeStyle=orthogonalEdgeStyle;html=1;align=left;verticalAlign=top;endArrow=open;endSize=8;strokeColor=#ff0000;rounded=0;exitX=1;exitY=0.5;exitDx=0;exitDy=0;entryX=0.5;entryY=1;entryDx=0;entryDy=0;" parent="1" source="a-drvNiUqQqroQRQX2eO-27" target="a-drvNiUqQqroQRQX2eO-29" edge="1">
          <mxGeometry x="-1" relative="1" as="geometry">
            <mxPoint x="660.5" y="331" as="targetPoint" />
            <mxPoint x="660" y="240" as="sourcePoint" />
          </mxGeometry>
        </mxCell>
        <mxCell id="a-drvNiUqQqroQRQX2eO-22" value="" style="shape=line;html=1;strokeWidth=6;strokeColor=#ff0000;" parent="1" vertex="1">
          <mxGeometry x="250" y="360" width="200" height="10" as="geometry" />
        </mxCell>
        <mxCell id="a-drvNiUqQqroQRQX2eO-23" value="" style="edgeStyle=orthogonalEdgeStyle;html=1;verticalAlign=bottom;endArrow=open;endSize=8;strokeColor=#ff0000;rounded=0;entryX=0.5;entryY=0;entryDx=0;entryDy=0;" parent="1" source="a-drvNiUqQqroQRQX2eO-22" target="a-drvNiUqQqroQRQX2eO-24" edge="1">
          <mxGeometry relative="1" as="geometry">
            <mxPoint x="480" y="430" as="targetPoint" />
            <Array as="points">
              <mxPoint x="354" y="400" />
              <mxPoint x="354" y="400" />
            </Array>
          </mxGeometry>
        </mxCell>
        <mxCell id="a-drvNiUqQqroQRQX2eO-24" value="Návštěva fanshopu" style="rounded=1;whiteSpace=wrap;html=1;arcSize=40;fontColor=#000000;fillColor=#ffffc0;strokeColor=#ff0000;" parent="1" vertex="1">
          <mxGeometry x="294" y="470" width="120" height="40" as="geometry" />
        </mxCell>
        <mxCell id="a-drvNiUqQqroQRQX2eO-25" value="" style="edgeStyle=orthogonalEdgeStyle;html=1;verticalAlign=bottom;endArrow=open;endSize=8;strokeColor=#ff0000;rounded=0;entryX=0.5;entryY=1;entryDx=0;entryDy=0;" parent="1" source="a-drvNiUqQqroQRQX2eO-24" target="a-drvNiUqQqroQRQX2eO-27" edge="1">
          <mxGeometry relative="1" as="geometry">
            <mxPoint x="480" y="530" as="targetPoint" />
          </mxGeometry>
        </mxCell>
        <mxCell id="a-drvNiUqQqroQRQX2eO-26" value="yes" style="edgeStyle=orthogonalEdgeStyle;html=1;align=left;verticalAlign=bottom;endArrow=open;endSize=8;strokeColor=#ff0000;rounded=0;" parent="1" edge="1">
          <mxGeometry x="-1" relative="1" as="geometry">
            <mxPoint x="570" y="244.5" as="targetPoint" />
            <mxPoint x="480" y="244.5" as="sourcePoint" />
          </mxGeometry>
        </mxCell>
        <mxCell id="a-drvNiUqQqroQRQX2eO-27" value="Má lístek?" style="rhombus;whiteSpace=wrap;html=1;fontColor=#000000;fillColor=#ffffc0;strokeColor=#ff0000;" parent="1" vertex="1">
          <mxGeometry x="570" y="220" width="90" height="50" as="geometry" />
        </mxCell>
        <mxCell id="a-drvNiUqQqroQRQX2eO-28" value="yes" style="edgeStyle=orthogonalEdgeStyle;html=1;align=left;verticalAlign=bottom;endArrow=open;endSize=8;strokeColor=#ff0000;rounded=0;exitX=0.5;exitY=0;exitDx=0;exitDy=0;entryX=1;entryY=0.5;entryDx=0;entryDy=0;" parent="1" source="a-drvNiUqQqroQRQX2eO-27" target="a-drvNiUqQqroQRQX2eO-7" edge="1">
          <mxGeometry x="-1" relative="1" as="geometry">
            <mxPoint x="680" y="170" as="targetPoint" />
            <mxPoint x="590" y="170" as="sourcePoint" />
          </mxGeometry>
        </mxCell>
        <mxCell id="a-drvNiUqQqroQRQX2eO-29" value="Návštěva pokladny" style="rounded=1;whiteSpace=wrap;html=1;arcSize=40;fontColor=#000000;fillColor=#ffffc0;strokeColor=#ff0000;" parent="1" vertex="1">
          <mxGeometry x="690" y="125" width="120" height="40" as="geometry" />
        </mxCell>
        <mxCell id="a-drvNiUqQqroQRQX2eO-30" value="" style="edgeStyle=orthogonalEdgeStyle;html=1;align=left;verticalAlign=bottom;endArrow=open;endSize=8;strokeColor=#ff0000;rounded=0;entryX=0.5;entryY=0;entryDx=0;entryDy=0;" parent="1" source="a-drvNiUqQqroQRQX2eO-29" target="a-drvNiUqQqroQRQX2eO-7" edge="1">
          <mxGeometry x="-1" relative="1" as="geometry">
            <mxPoint x="340" y="-17.75" as="targetPoint" />
            <mxPoint x="775" y="97.25" as="sourcePoint" />
            <Array as="points">
              <mxPoint x="750" y="60" />
              <mxPoint x="120" y="60" />
            </Array>
          </mxGeometry>
        </mxCell>
        <mxCell id="a-drvNiUqQqroQRQX2eO-32" value="no" style="edgeStyle=orthogonalEdgeStyle;html=1;align=left;verticalAlign=top;endArrow=open;endSize=8;strokeColor=#ff0000;rounded=0;exitX=0.5;exitY=1;exitDx=0;exitDy=0;entryX=0.925;entryY=0.3;entryDx=0;entryDy=0;entryPerimeter=0;" parent="1" source="a-drvNiUqQqroQRQX2eO-20" target="a-drvNiUqQqroQRQX2eO-22" edge="1">
          <mxGeometry x="-1" relative="1" as="geometry">
            <mxPoint x="275" y="380" as="targetPoint" />
            <mxPoint x="275" y="290" as="sourcePoint" />
          </mxGeometry>
        </mxCell>
      </root>
    </mxGraphModel>
  </diagram>
</mxfile>
